<?xml version="1.0" standalone="no"?>
<!DOCTYPE svg PUBLIC "-//W3C//DTD SVG 20010904//EN"
 "http://www.w3.org/TR/2001/REC-SVG-20010904/DTD/svg10.dtd">
<svg version="1.0" xmlns="http://www.w3.org/2000/svg"
 width="1080.000000pt" height="1080.000000pt" viewBox="0 0 1080.000000 1080.000000"
 preserveAspectRatio="xMidYMid meet">

<g transform="translate(0.000000,1080.000000) scale(0.100000,-0.100000)"
fill="#0000ff" stroke="none">
<path d="M4920 7844 c-549 -42 -1009 -122 -1437 -250 -479 -143 -783 -321
-870 -511 -127 -277 115 -701 775 -1357 l210 -210 -42 -55 c-68 -89 -247 -354
-334 -497 -323 -528 -550 -1032 -657 -1464 -35 -140 -45 -349 -21 -432 31
-107 107 -139 173 -73 33 33 35 39 29 78 -4 23 -11 63 -15 89 -42 269 237
1001 627 1643 119 196 335 516 383 569 5 5 39 -19 81 -56 297 -264 771 -645
1188 -955 1012 -751 2002 -1335 2380 -1403 166 -30 270 31 278 163 14 229
-245 955 -574 1608 -231 459 -462 830 -711 1144 -161 203 -441 468 -609 577
-56 36 -194 104 -257 128 -450 165 -940 -23 -1492 -575 -88 -88 -191 -197
-229 -242 -54 -65 -72 -80 -85 -74 -34 18 -471 472 -574 595 -286 343 -403
591 -341 721 55 116 308 258 664 373 432 139 929 227 1550 272 188 14 763 14
950 0 832 -61 1461 -269 1800 -596 197 -190 295 -397 307 -649 16 -328 -146
-706 -507 -1185 -48 -64 -93 -126 -99 -139 -33 -61 30 -148 98 -137 44 6 78
42 208 221 183 251 336 521 409 723 165 451 108 848 -169 1196 -199 250 -561
462 -1010 592 -314 91 -622 142 -1036 174 -186 14 -829 10 -1041 -6z m418
-1420 c481 -99 1051 -739 1566 -1759 139 -273 227 -469 331 -735 118 -302 209
-591 230 -732 7 -45 6 -48 -15 -48 -87 0 -507 192 -840 384 -786 455 -1843
1222 -2617 1901 l-123 107 78 91 c112 133 341 359 462 456 351 282 654 391
928 335z"/>
</g>
</svg>
