<?xml version="1.0" standalone="no"?>
<!DOCTYPE svg PUBLIC "-//W3C//DTD SVG 20010904//EN"
 "http://www.w3.org/TR/2001/REC-SVG-20010904/DTD/svg10.dtd">
<svg version="1.0" xmlns="http://www.w3.org/2000/svg"
 width="618.000000pt" height="486.000000pt" viewBox="0 0 618.000000 486.000000"
 preserveAspectRatio="xMidYMid meet">

<g transform="translate(0.000000,486.000000) scale(0.100000,-0.100000)"
fill="#ff00ff" stroke="none">
<path d="M5168 4843 c7 -3 16 -2 19 1 4 3 -2 6 -13 5 -11 0 -14 -3 -6 -6z"/>
<path d="M5308 4843 c7 -3 16 -2 19 1 4 3 -2 6 -13 5 -11 0 -14 -3 -6 -6z"/>
<path d="M5193 4803 c9 -2 23 -2 30 0 6 3 -1 5 -18 5 -16 0 -22 -2 -12 -5z"/>
<path d="M5278 4803 c6 -2 18 -2 25 0 6 3 1 5 -13 5 -14 0 -19 -2 -12 -5z"/>
<path d="M5048 4764 c-39 -21 -35 -28 5 -8 37 19 44 24 31 24 -5 -1 -21 -8
-36 -16z"/>
<path d="M4905 4708 l-40 -43 43 40 c39 36 47 45 39 45 -2 0 -21 -19 -42 -42z"/>
<path d="M5585 4710 c10 -11 20 -20 23 -20 3 0 -3 9 -13 20 -10 11 -20 20 -23
20 -3 0 3 -9 13 -20z"/>
<path d="M4935 4678 l-40 -43 43 40 c39 36 47 45 39 45 -2 0 -21 -19 -42 -42z"/>
<path d="M5232 4655 c0 -16 2 -22 5 -12 2 9 2 23 0 30 -3 6 -5 -1 -5 -18z"/>
<path d="M5263 4656 c1 -17 9 -31 17 -33 10 -3 11 -2 4 4 -7 4 -14 19 -17 33
-4 22 -5 21 -4 -4z"/>
<path d="M2988 4623 c12 -2 30 -2 40 0 9 3 -1 5 -23 4 -22 0 -30 -2 -17 -4z"/>
<path d="M2839 4593 c-13 -16 -12 -17 4 -4 16 13 21 21 13 21 -2 0 -10 -8 -17
-17z"/>
<path d="M2829 4553 l-24 -28 28 24 c25 23 32 31 24 31 -2 0 -14 -12 -28 -27z"/>
<path d="M3170 4555 c13 -14 26 -25 28 -25 3 0 -5 11 -18 25 -13 14 -26 25
-28 25 -3 0 5 -11 18 -25z"/>
<path d="M3007 4540 c3 -11 9 -20 13 -20 5 0 6 9 3 20 -3 11 -9 20 -13 20 -5
0 -6 -9 -3 -20z"/>
<path d="M5215 4539 c-4 -6 -5 -12 -2 -15 2 -3 7 2 10 11 7 17 1 20 -8 4z"/>
<path d="M2985 4530 c-3 -5 -1 -10 4 -10 6 0 11 5 11 10 0 6 -2 10 -4 10 -3 0
-8 -4 -11 -10z"/>
<path d="M5280 4490 c0 -11 4 -20 9 -20 5 0 7 9 4 20 -3 11 -7 20 -9 20 -2 0
-4 -9 -4 -20z"/>
<path d="M5370 4502 c0 -6 -8 -13 -17 -15 -16 -4 -16 -5 -1 -6 18 -1 34 16 24
26 -3 4 -6 1 -6 -5z"/>
<path d="M5210 4481 c0 -6 4 -13 10 -16 6 -3 7 1 4 9 -7 18 -14 21 -14 7z"/>
<path d="M2981 4460 c-1 -9 20 -36 47 -60 l47 -45 -41 45 c-23 25 -44 52 -47
60 -5 13 -6 13 -6 0z"/>
<path d="M3020 4458 c0 -12 7 -18 23 -17 15 0 17 2 7 6 -8 3 -18 11 -22 17 -5
7 -8 4 -8 -6z"/>
<path d="M4811 4444 c0 -11 3 -14 6 -6 3 7 2 16 -1 19 -3 4 -6 -2 -5 -13z"/>
<path d="M2741 4434 c0 -11 3 -14 6 -6 3 7 2 16 -1 19 -3 4 -6 -2 -5 -13z"/>
<path d="M3261 4434 c0 -11 3 -14 6 -6 3 7 2 16 -1 19 -3 4 -6 -2 -5 -13z"/>
<path d="M5721 4434 c0 -11 3 -14 6 -6 3 7 2 16 -1 19 -3 4 -6 -2 -5 -13z"/>
<path d="M2763 4385 c0 -27 2 -38 4 -22 2 15 2 37 0 50 -2 12 -4 0 -4 -28z"/>
<path d="M3243 4385 c0 -27 2 -38 4 -22 2 15 2 37 0 50 -2 12 -4 0 -4 -28z"/>
<path d="M5682 4405 c0 -16 2 -22 5 -12 2 9 2 23 0 30 -3 6 -5 -1 -5 -18z"/>
<path d="M5160 4385 c19 -19 36 -35 39 -35 3 0 -10 16 -29 35 -19 19 -36 35
-39 35 -3 0 10 -16 29 -35z"/>
<path d="M5285 4400 c10 -11 20 -20 23 -20 3 0 -3 9 -13 20 -10 11 -20 20 -23
20 -3 0 3 -9 13 -20z"/>
<path d="M4018 4403 c6 -2 18 -2 25 0 6 3 1 5 -13 5 -14 0 -19 -2 -12 -5z"/>
<path d="M4088 4403 c6 -2 18 -2 25 0 6 3 1 5 -13 5 -14 0 -19 -2 -12 -5z"/>
<path d="M4763 4370 c0 -25 2 -35 4 -22 2 12 2 32 0 45 -2 12 -4 2 -4 -23z"/>
<path d="M4053 4383 c9 -2 23 -2 30 0 6 3 -1 5 -18 5 -16 0 -22 -2 -12 -5z"/>
<path d="M3944 4354 c-18 -14 -18 -14 6 -3 31 14 36 19 24 19 -6 0 -19 -7 -30
-16z"/>
<path d="M5335 4350 c10 -11 20 -20 23 -20 3 0 -3 9 -13 20 -10 11 -20 20 -23
20 -3 0 3 -9 13 -20z"/>
<path d="M3889 4343 c-13 -16 -12 -17 4 -4 16 13 21 21 13 21 -2 0 -10 -8 -17
-17z"/>
<path d="M4220 4357 c0 -2 15 -16 33 -33 l32 -29 -29 33 c-28 30 -36 37 -36
29z"/>
<path d="M2741 4334 c0 -11 3 -14 6 -6 3 7 2 16 -1 19 -3 4 -6 -2 -5 -13z"/>
<path d="M3261 4334 c0 -11 3 -14 6 -6 3 7 2 16 -1 19 -3 4 -6 -2 -5 -13z"/>
<path d="M5682 4325 c0 -16 2 -22 5 -12 2 9 2 23 0 30 -3 6 -5 -1 -5 -18z"/>
<path d="M2958 4333 c7 -3 16 -2 19 1 4 3 -2 6 -13 5 -11 0 -14 -3 -6 -6z"/>
<path d="M3021 4314 c0 -11 3 -14 6 -6 3 7 2 16 -1 19 -3 4 -6 -2 -5 -13z"/>
<path d="M3889 4313 c-13 -16 -12 -17 4 -4 16 13 21 21 13 21 -2 0 -10 -8 -17
-17z"/>
<path d="M4220 4326 c0 -2 8 -10 18 -17 15 -13 16 -12 3 4 -13 16 -21 21 -21
13z"/>
<path d="M4067 4300 c3 -11 9 -20 13 -20 5 0 6 9 3 20 -3 11 -9 20 -13 20 -5
0 -6 -9 -3 -20z"/>
<path d="M4811 4294 c0 -11 3 -14 6 -6 3 7 2 16 -1 19 -3 4 -6 -2 -5 -13z"/>
<path d="M5721 4294 c0 -11 3 -14 6 -6 3 7 2 16 -1 19 -3 4 -6 -2 -5 -13z"/>
<path d="M5382 4240 c0 -14 2 -19 5 -12 2 6 2 18 0 25 -3 6 -5 1 -5 -13z"/>
<path d="M5111 4234 c0 -11 3 -14 6 -6 3 7 2 16 -1 19 -3 4 -6 -2 -5 -13z"/>
<path d="M2830 4215 c13 -14 26 -25 28 -25 3 0 -5 11 -18 25 -13 14 -26 25
-28 25 -3 0 5 -11 18 -25z"/>
<path d="M3164 4208 l-29 -33 33 29 c17 17 32 31 32 33 0 8 -8 1 -36 -29z"/>
<path d="M4041 4214 c0 -11 3 -14 6 -6 3 7 2 16 -1 19 -3 4 -6 -2 -5 -13z"/>
<path d="M4080 4218 c0 -12 7 -18 23 -17 15 0 17 2 7 6 -8 3 -18 11 -22 17 -5
7 -8 4 -8 -6z"/>
<path d="M3801 4194 c0 -11 3 -14 6 -6 3 7 2 16 -1 19 -3 4 -6 -2 -5 -13z"/>
<path d="M5120 4191 c0 -6 4 -13 10 -16 6 -3 7 1 4 9 -7 18 -14 21 -14 7z"/>
<path d="M3823 4145 c0 -27 2 -38 4 -22 2 15 2 37 0 50 -2 12 -4 0 -4 -28z"/>
<path d="M4303 4140 c0 -25 2 -35 4 -22 2 12 2 32 0 45 -2 12 -4 2 -4 -23z"/>
<path d="M4015 4150 c10 -11 20 -20 23 -20 3 0 -3 9 -13 20 -10 11 -20 20 -23
20 -3 0 3 -9 13 -20z"/>
<path d="M4095 4150 c10 -11 20 -20 23 -20 3 0 -3 9 -13 20 -10 11 -20 20 -23
20 -3 0 3 -9 13 -20z"/>
<path d="M5344 4148 l-19 -23 23 19 c21 18 27 26 19 26 -2 0 -12 -10 -23 -22z"/>
<path d="M5140 4156 c0 -2 8 -10 18 -17 15 -13 16 -12 3 4 -13 16 -21 21 -21
13z"/>
<path d="M2968 4143 c6 -2 18 -2 25 0 6 3 1 5 -13 5 -14 0 -19 -2 -12 -5z"/>
<path d="M3028 4143 c7 -3 16 -2 19 1 4 3 -2 6 -13 5 -11 0 -14 -3 -6 -6z"/>
<path d="M5218 4113 c7 -3 16 -2 19 1 4 3 -2 6 -13 5 -11 0 -14 -3 -6 -6z"/>
<path d="M5275 4110 c-3 -6 1 -7 9 -4 18 7 21 14 7 14 -6 0 -13 -4 -16 -10z"/>
<path d="M4321 4094 c0 -11 3 -14 6 -6 3 7 2 16 -1 19 -3 4 -6 -2 -5 -13z"/>
<path d="M4850 4086 c0 -2 8 -10 18 -17 15 -13 16 -12 3 4 -13 16 -21 21 -21
13z"/>
<path d="M5549 4053 l-34 -38 38 34 c34 33 42 41 34 41 -2 0 -19 -17 -38 -37z"/>
<path d="M5585 4028 l-40 -43 43 40 c39 36 47 45 39 45 -2 0 -21 -19 -42 -42z"/>
<path d="M5248 4053 c7 -3 16 -2 19 1 4 3 -2 6 -13 5 -11 0 -14 -3 -6 -6z"/>
<path d="M3820 4031 c0 -6 4 -13 10 -16 6 -3 7 1 4 9 -7 18 -14 21 -14 7z"/>
<path d="M4209 3953 c-13 -16 -12 -17 4 -4 16 13 21 21 13 21 -2 0 -10 -8 -17
-17z"/>
<path d="M5450 3935 c-14 -8 -20 -14 -14 -15 5 0 19 7 30 15 24 18 16 19 -16
0z"/>
<path d="M5168 3933 c7 -3 16 -2 19 1 4 3 -2 6 -13 5 -11 0 -14 -3 -6 -6z"/>
<path d="M4018 3903 c7 -3 16 -2 19 1 4 3 -2 6 -13 5 -11 0 -14 -3 -6 -6z"/>
<path d="M4098 3903 c7 -3 16 -2 19 1 4 3 -2 6 -13 5 -11 0 -14 -3 -6 -6z"/>
<path d="M5148 3893 c7 -3 16 -2 19 1 4 3 -2 6 -13 5 -11 0 -14 -3 -6 -6z"/>
<path d="M5228 3883 c12 -2 32 -2 45 0 12 2 2 4 -23 4 -25 0 -35 -2 -22 -4z"/>
<path d="M3163 3533 c15 -2 39 -2 55 0 15 2 2 4 -28 4 -30 0 -43 -2 -27 -4z"/>
<path d="M3088 3523 c7 -3 16 -2 19 1 4 3 -2 6 -13 5 -11 0 -14 -3 -6 -6z"/>
<path d="M2995 3490 c-3 -6 1 -7 9 -4 18 7 21 14 7 14 -6 0 -13 -4 -16 -10z"/>
<path d="M3128 3493 c7 -3 16 -2 19 1 4 3 -2 6 -13 5 -11 0 -14 -3 -6 -6z"/>
<path d="M3238 3493 c7 -3 16 -2 19 1 4 3 -2 6 -13 5 -11 0 -14 -3 -6 -6z"/>
<path d="M3430 3456 c0 -2 8 -10 18 -17 15 -13 16 -12 3 4 -13 16 -21 21 -21
13z"/>
<path d="M4379 3158 c0 -161 0 -397 1 -525 1 -213 0 -232 -17 -243 -16 -10
-16 -11 0 -6 16 5 17 -56 17 -1179 l0 -1185 -120 0 -120 0 -2 783 -3 782 -856
5 c-470 3 -887 2 -925 -1 -38 -3 -57 -7 -41 -7 l27 -2 0 -780 0 -780 -125 0
-125 0 0 335 0 335 -895 0 -895 0 0 -335 0 -334 -148 -4 c-81 -1 1242 -4 2941
-5 l3087 -2 0 1720 0 1720 -900 0 -900 0 -1 -292z m1711 -1435 l0 -1706 -332
6 c-182 4 -535 7 -784 7 -398 0 -453 2 -448 15 4 8 10 13 14 10 5 -3 6 4 3 16
-3 12 -1 24 4 28 19 12 41 69 31 79 -7 7 -2 18 16 33 18 16 24 30 22 50 -2 16
0 26 4 24 8 -5 23 33 21 49 -1 5 5 3 14 -4 13 -11 15 -10 9 4 -4 10 -1 16 7
16 11 0 11 3 -1 10 -9 6 -11 10 -3 10 7 0 10 7 7 15 -4 8 -1 22 6 30 6 8 9 18
6 23 -3 5 4 16 15 25 10 9 19 24 19 32 0 8 5 15 11 15 5 0 7 4 4 10 -7 11 32
102 49 112 8 6 8 8 -1 8 -16 0 3 70 25 90 14 14 15 13 1 -5 -13 -18 -13 -19 3
-7 13 11 15 19 7 38 -5 14 -5 23 0 20 11 -7 43 73 34 87 -3 6 -1 7 5 3 11 -6
17 22 10 40 -2 3 5 10 16 16 15 8 16 12 5 19 -10 6 -11 9 -1 9 6 0 12 6 12 13
0 7 5 18 12 25 6 6 13 24 14 39 2 15 11 33 20 40 10 7 14 13 10 13 -5 0 -2 8
5 17 8 9 9 14 2 10 -8 -5 -8 -1 0 18 7 14 18 25 25 25 7 0 10 5 7 10 -9 14 25
100 39 100 6 0 4 5 -4 10 -10 6 -11 10 -2 10 6 0 12 7 12 15 0 8 6 15 13 16 9
0 9 2 0 6 -10 3 -10 9 0 26 7 12 17 25 22 29 6 4 6 8 1 8 -5 0 -3 6 3 13 6 8
13 24 15 38 3 13 5 26 6 29 2 3 2 8 1 13 0 4 6 7 14 7 9 0 15 6 13 13 -2 13 7
48 22 82 5 11 11 33 15 48 3 15 10 25 16 22 5 -4 9 -3 8 2 -4 21 2 44 9 39 5
-3 9 0 10 7 3 39 7 57 12 57 3 0 6 9 7 21 1 12 10 27 19 34 10 7 19 18 20 26
12 60 16 75 25 85 5 7 8 18 7 25 -2 7 7 18 20 24 20 11 21 14 7 25 -8 7 -15
17 -15 22 0 7 5 6 13 -1 11 -8 14 -4 14 24 0 20 6 41 13 48 7 7 10 7 7 2 -3
-6 -2 -17 2 -24 6 -9 9 -4 9 13 0 14 -5 26 -10 26 -5 0 1 10 12 22 11 12 18
28 16 35 -3 7 -2 13 2 13 4 0 13 4 21 9 12 8 12 12 2 25 -11 13 -11 16 1 16 7
0 15 9 16 20 1 11 3 29 4 40 2 15 7 19 23 14 14 -4 16 -3 6 4 -11 8 -10 16 5
47 9 20 17 43 17 51 0 8 5 14 10 14 5 0 7 7 3 15 -3 8 1 21 9 29 17 17 20 30
5 21 -22 -13 -8 8 24 39 24 22 32 36 26 46 -9 14 17 70 32 70 4 0 8 5 8 11 0
5 -4 7 -10 4 -6 -3 -7 1 -4 9 3 9 10 16 16 16 5 0 6 5 3 10 -3 6 -2 10 4 10 6
0 8 7 5 15 -4 8 -1 15 5 15 7 0 11 6 10 13 -3 25 1 37 14 37 8 0 12 13 11 35
-1 19 2 32 7 29 5 -3 9 2 9 11 0 9 4 14 9 11 4 -3 6 6 3 19 -2 15 0 25 7 25 7
0 9 5 6 10 -3 6 -1 10 5 10 6 0 8 5 5 10 -3 6 -2 10 4 10 6 0 8 6 5 14 -3 8 2
26 11 40 10 14 14 26 11 26 -4 0 0 14 9 30 9 17 21 30 27 30 9 0 9 3 1 11 -9
9 -6 19 10 41 19 25 19 30 7 39 -12 9 -12 10 3 5 11 -3 17 0 17 9 0 8 5 15 12
15 6 0 8 3 5 7 -4 3 -2 12 4 20 9 10 8 13 0 13 -8 0 -4 12 9 31 13 18 20 39
18 53 -4 18 -1 23 11 21 22 -3 32 16 18 34 -9 11 -9 15 1 18 6 3 12 11 12 19
0 11 20 14 95 14 l95 0 0 -1707z m-899 -16 c-10 -9 -11 -8 -5 6 3 10 9 15 12
12 3 -3 0 -11 -7 -18z m-1141 -914 l0 -776 -332 6 c-182 4 -533 7 -779 7
l-448 0 42 43 c23 23 42 45 42 50 0 4 11 17 25 30 29 25 66 78 62 90 -1 4 1 6
5 6 28 -4 45 2 39 16 -3 8 -1 15 5 15 6 0 7 5 3 12 -5 8 -2 9 9 5 9 -3 16 -3
14 1 -4 14 32 54 42 47 7 -3 10 -3 9 2 -5 16 24 54 37 50 7 -3 12 1 11 11 0 9
5 16 12 14 8 -1 11 1 8 6 -5 9 24 42 59 67 l20 15 -20 -6 c-17 -4 -16 -3 3 8
12 8 20 17 16 20 -3 4 3 13 15 20 12 7 21 18 21 25 0 7 6 13 14 13 7 0 16 10
19 21 4 14 11 20 21 16 9 -4 15 -3 14 1 -5 25 38 75 56 65 5 -4 6 -1 3 4 -4 6
0 16 8 23 8 7 15 19 15 26 0 8 10 14 23 14 16 0 18 3 8 9 -11 7 -9 10 8 16 21
6 47 43 43 59 -2 5 4 6 13 2 9 -3 14 -2 10 3 -3 5 6 18 20 29 14 11 25 26 25
33 0 7 3 9 7 6 3 -4 17 11 31 34 16 26 29 38 38 35 8 -3 12 -2 9 3 -3 5 -1 12
5 16 6 4 8 11 5 16 -6 8 9 13 28 10 5 -1 6 3 3 7 -3 5 3 17 14 27 11 10 17 22
13 28 -3 5 -1 7 5 3 13 -8 44 22 37 35 -4 5 1 9 9 9 9 0 16 4 16 9 0 5 22 32
49 60 27 27 46 52 43 55 -3 4 0 6 7 6 7 0 10 4 7 9 -3 5 7 17 23 28 16 10 30
21 30 26 1 4 4 7 9 8 14 2 33 22 29 33 -4 10 29 46 42 46 4 0 15 16 25 35 10
19 28 37 38 41 11 3 17 8 15 11 -3 2 7 17 22 33 25 28 29 29 124 29 l97 1 0
-777z m-2046 -145 c3 -13 6 -160 6 -327 l0 -304 -322 6 c-178 4 -525 7 -773 7
l-450 1 38 20 c21 11 41 18 45 15 5 -3 15 4 22 15 16 21 36 27 24 7 -4 -7 5
-2 19 11 15 14 27 21 27 16 0 -5 5 -4 12 3 7 7 20 12 31 12 10 0 15 4 12 10
-3 6 3 10 14 10 11 0 23 5 26 10 4 6 11 8 16 5 5 -4 9 -2 9 4 0 6 16 13 35 17
19 3 35 10 35 16 0 5 4 7 9 4 5 -3 12 1 15 10 4 9 9 14 13 11 3 -4 25 5 50 18
24 14 50 25 58 25 8 0 15 3 15 8 0 4 24 18 53 31 28 13 77 37 108 52 32 15 60
25 63 22 3 -4 6 -1 6 5 0 7 6 12 14 12 8 0 16 5 18 11 2 5 10 11 18 13 8 1 25
8 38 14 12 7 22 9 22 5 0 -4 7 1 15 11 8 11 15 17 15 14 0 -4 26 6 58 21 31
16 68 32 82 36 14 4 43 19 64 33 41 25 101 54 124 58 7 1 20 8 29 15 8 7 22
14 30 15 9 2 20 7 26 13 7 7 55 11 118 11 102 0 107 -1 113 -22z"/>
<path d="M4890 910 c0 -5 5 -10 11 -10 5 0 7 5 4 10 -3 6 -8 10 -11 10 -2 0
-4 -4 -4 -10z"/>
<path d="M3450 3385 c19 -19 36 -35 39 -35 3 0 -10 16 -29 35 -19 19 -36 35
-39 35 -3 0 10 -16 29 -35z"/>
<path d="M3170 3376 c0 -13 -5 -27 -10 -29 -6 -3 -5 -4 2 -3 7 1 15 11 17 22
2 10 8 22 15 26 7 5 5 8 -6 8 -12 0 -18 -8 -18 -24z"/>
<path d="M3490 3396 c0 -2 8 -10 18 -17 15 -13 16 -12 3 4 -13 16 -21 21 -21
13z"/>
<path d="M3100 3315 c-13 -14 -22 -26 -19 -28 2 -1 16 10 31 25 15 15 23 28
19 28 -4 0 -18 -11 -31 -25z"/>
<path d="M3071 3242 c-1 -40 18 -79 55 -112 26 -23 25 -21 -4 13 -30 36 -36
50 -45 107 -3 20 -5 18 -6 -8z"/>
<path d="M3258 3223 c7 -3 16 -2 19 1 4 3 -2 6 -13 5 -11 0 -14 -3 -6 -6z"/>
<path d="M2781 3184 c0 -11 3 -14 6 -6 3 7 2 16 -1 19 -3 4 -6 -2 -5 -13z"/>
<path d="M3593 3125 c0 -33 2 -45 4 -27 2 18 2 45 0 60 -2 15 -4 0 -4 -33z"/>
<path d="M3240 3135 c19 -19 36 -35 39 -35 3 0 -10 16 -29 35 -19 19 -36 35
-39 35 -3 0 10 -16 29 -35z"/>
<path d="M2781 3064 c0 -11 3 -14 6 -6 3 7 2 16 -1 19 -3 4 -6 -2 -5 -13z"/>
<path d="M3551 3064 c0 -11 3 -14 6 -6 3 7 2 16 -1 19 -3 4 -6 -2 -5 -13z"/>
<path d="M3207 3039 c4 -13 8 -18 11 -10 2 7 -1 18 -6 23 -8 8 -9 4 -5 -13z"/>
<path d="M3071 3028 c0 -16 2 -18 6 -8 3 8 11 18 17 22 7 5 4 8 -6 8 -12 0
-18 -7 -17 -22z"/>
<path d="M3301 3014 c0 -11 3 -14 6 -6 3 7 2 16 -1 19 -3 4 -6 -2 -5 -13z"/>
<path d="M3090 2956 c0 -2 8 -10 18 -17 15 -13 16 -12 3 4 -13 16 -21 21 -21
13z"/>
<path d="M3182 2885 c0 -16 2 -22 5 -12 2 9 2 23 0 30 -3 6 -5 -1 -5 -18z"/>
<path d="M2915 2870 c10 -11 20 -20 23 -20 3 0 -3 9 -13 20 -10 11 -20 20 -23
20 -3 0 3 -9 13 -20z"/>
<path d="M2870 2867 c0 -2 15 -16 33 -33 l32 -29 -29 33 c-28 30 -36 37 -36
29z"/>
<path d="M4208 2863 c7 -3 16 -2 19 1 4 3 -2 6 -13 5 -11 0 -14 -3 -6 -6z"/>
<path d="M4288 2863 c7 -3 16 -2 19 1 4 3 -2 6 -13 5 -11 0 -14 -3 -6 -6z"/>
<path d="M4135 2840 c-3 -6 1 -7 9 -4 18 7 21 14 7 14 -6 0 -13 -4 -16 -10z"/>
<path d="M4064 2818 l-19 -23 23 19 c21 18 27 26 19 26 -2 0 -12 -10 -23 -22z"/>
<path d="M4240 2785 c0 -8 2 -15 4 -15 2 0 6 7 10 15 3 8 1 15 -4 15 -6 0 -10
-7 -10 -15z"/>
<path d="M4194 2748 l-19 -23 25 20 c14 11 27 21 29 22 2 2 0 3 -6 3 -5 0 -18
-10 -29 -22z"/>
<path d="M3178 2753 c6 -2 18 -2 25 0 6 3 1 5 -13 5 -14 0 -19 -2 -12 -5z"/>
<path d="M3118 2723 c7 -3 16 -2 19 1 4 3 -2 6 -13 5 -11 0 -14 -3 -6 -6z"/>
<path d="M4230 2694 c0 -6 19 -28 43 -49 l42 -40 -40 45 c-22 25 -41 47 -42
49 -2 2 -3 0 -3 -5z"/>
<path d="M4011 2664 c0 -11 3 -14 6 -6 3 7 2 16 -1 19 -3 4 -6 -2 -5 -13z"/>
<path d="M4011 2584 c0 -11 3 -14 6 -6 3 7 2 16 -1 19 -3 4 -6 -2 -5 -13z"/>
<path d="M3991 2564 c0 -11 3 -14 6 -6 3 7 2 16 -1 19 -3 4 -6 -2 -5 -13z"/>
<path d="M4188 2573 c7 -3 16 -2 19 1 4 3 -2 6 -13 5 -11 0 -14 -3 -6 -6z"/>
<path d="M2258 2543 c7 -3 16 -2 19 1 4 3 -2 6 -13 5 -11 0 -14 -3 -6 -6z"/>
<path d="M2388 2543 c6 -2 18 -2 25 0 6 3 1 5 -13 5 -14 0 -19 -2 -12 -5z"/>
<path d="M4000 2534 c0 -6 7 -19 16 -30 14 -18 14 -18 3 6 -14 31 -19 36 -19
24z"/>
<path d="M4180 2531 c0 -6 4 -13 10 -16 6 -3 7 1 4 9 -7 18 -14 21 -14 7z"/>
<path d="M2283 2503 c9 -2 23 -2 30 0 6 3 -1 5 -18 5 -16 0 -22 -2 -12 -5z"/>
<path d="M2353 2503 c9 -2 23 -2 30 0 6 3 -1 5 -18 5 -16 0 -22 -2 -12 -5z"/>
<path d="M4257 2470 c-3 -11 -1 -20 4 -20 5 0 9 9 9 20 0 11 -2 20 -4 20 -2 0
-6 -9 -9 -20z"/>
<path d="M4080 2455 c13 -14 26 -25 28 -25 3 0 -5 11 -18 25 -13 14 -26 25
-28 25 -3 0 5 -11 18 -25z"/>
<path d="M2670 2405 c19 -19 36 -35 39 -35 3 0 -10 16 -29 35 -19 19 -36 35
-39 35 -3 0 10 -16 29 -35z"/>
<path d="M1984 2408 l-19 -23 23 19 c12 11 22 21 22 23 0 8 -8 2 -26 -19z"/>
<path d="M2640 2375 c19 -19 36 -35 39 -35 3 0 -10 16 -29 35 -19 19 -36 35
-39 35 -3 0 10 -16 29 -35z"/>
<path d="M4243 2383 c9 -2 23 -2 30 0 6 3 -1 5 -18 5 -16 0 -22 -2 -12 -5z"/>
<path d="M4208 2363 c7 -3 16 -2 19 1 4 3 -2 6 -13 5 -11 0 -14 -3 -6 -6z"/>
<path d="M2358 2323 c7 -3 16 -2 19 1 4 3 -2 6 -13 5 -11 0 -14 -3 -6 -6z"/>
<path d="M2224 2288 l-19 -23 23 19 c21 18 27 26 19 26 -2 0 -12 -10 -23 -22z"/>
<path d="M2756 2287 c3 -10 9 -15 12 -12 3 3 0 11 -7 18 -10 9 -11 8 -5 -6z"/>
<path d="M2436 2267 c3 -10 9 -15 12 -12 3 3 0 11 -7 18 -10 9 -11 8 -5 -6z"/>
<path d="M2192 2205 c0 -16 2 -22 5 -12 2 9 2 23 0 30 -3 6 -5 -1 -5 -18z"/>
<path d="M2292 2205 c0 -16 2 -22 5 -12 2 9 2 23 0 30 -3 6 -5 -1 -5 -18z"/>
<path d="M2450 2211 c0 -11 -8 -22 -17 -24 -14 -4 -12 -5 5 -6 17 -1 22 4 22
24 0 14 -2 25 -5 25 -3 0 -5 -9 -5 -19z"/>
<path d="M2330 2135 c19 -19 36 -35 39 -35 3 0 -10 16 -29 35 -19 19 -36 35
-39 35 -3 0 10 -16 29 -35z"/>
<path d="M1851 2144 c0 -11 3 -14 6 -6 3 7 2 16 -1 19 -3 4 -6 -2 -5 -13z"/>
<path d="M1892 2115 c0 -16 2 -22 5 -12 2 9 2 23 0 30 -3 6 -5 -1 -5 -18z"/>
<path d="M2230 2096 c0 -2 8 -10 18 -17 15 -13 16 -12 3 4 -13 16 -21 21 -21
13z"/>
<path d="M2813 2065 c0 -22 2 -30 4 -17 2 12 2 30 0 40 -3 9 -5 -1 -4 -23z"/>
<path d="M1892 2020 c0 -14 2 -19 5 -12 2 6 2 18 0 25 -3 6 -5 1 -5 -13z"/>
<path d="M2320 2015 c13 -14 26 -25 28 -25 3 0 -5 11 -18 25 -13 14 -26 25
-28 25 -3 0 5 -11 18 -25z"/>
<path d="M2441 2020 c14 -31 19 -36 19 -24 0 6 -7 19 -16 30 -14 18 -14 18 -3
-6z"/>
<path d="M1851 1994 c0 -11 3 -14 6 -6 3 7 2 16 -1 19 -3 4 -6 -2 -5 -13z"/>
<path d="M2761 1994 c0 -11 3 -14 6 -6 3 7 2 16 -1 19 -3 4 -6 -2 -5 -13z"/>
<path d="M2282 1965 c0 -16 2 -22 5 -12 2 9 2 23 0 30 -3 6 -5 -1 -5 -18z"/>
<path d="M2801 1974 c0 -11 3 -14 6 -6 3 7 2 16 -1 19 -3 4 -6 -2 -5 -13z"/>
<path d="M2462 1960 c0 -14 2 -19 5 -12 2 6 2 18 0 25 -3 6 -5 1 -5 -13z"/>
<path d="M2461 1914 c0 -11 3 -14 6 -6 3 7 2 16 -1 19 -3 4 -6 -2 -5 -13z"/>
<path d="M2303 1813 c11 -3 17 -14 17 -34 0 -22 5 -29 20 -29 15 0 20 7 20 29
0 16 5 32 10 34 6 3 5 4 -2 3 -7 -1 -14 -15 -16 -29 -4 -37 -22 -34 -22 3 0
25 -4 30 -22 29 -17 -1 -19 -2 -5 -6z"/>
<path d="M2015 1760 c21 -22 41 -40 44 -40 3 0 -13 18 -34 40 -21 22 -41 40
-44 40 -3 0 13 -18 34 -40z"/>
<path d="M1950 1766 c0 -2 8 -10 18 -17 15 -13 16 -12 3 4 -13 16 -21 21 -21
13z"/>
<path d="M2619 1683 c-13 -16 -12 -17 4 -4 16 13 21 21 13 21 -2 0 -10 -8 -17
-17z"/>
<path d="M2248 1633 c7 -3 16 -2 19 1 4 3 -2 6 -13 5 -11 0 -14 -3 -6 -6z"/>
<path d="M2398 1633 c7 -3 16 -2 19 1 4 3 -2 6 -13 5 -11 0 -14 -3 -6 -6z"/>
<path d="M2228 1593 c7 -3 16 -2 19 1 4 3 -2 6 -13 5 -11 0 -14 -3 -6 -6z"/>
</g>
</svg>
